# xmcd CD database file
#
# Track frame offsets:
#	150
#	19650
#	44550
#	67050
#	89325
#	105600
#	134400
#	163500
#	190200
#	210075
#	234000
#	252000
#
# Disc length: 3662 seconds
#
# Revision: 1
# Processed by: cddbd v1.5.1PL2 Copyright (c) Steve Scherf et al.
# Submitted via: freeDBTagger 0.8.2.1
#
DISCID=970e4c0c
DTITLE=元ちとせ - 完全収録ライヴCD 元ちとせ「冬のハイヌミカゼ」 [CD2]
DYEAR=2004
DGENRE=misc
TTITLE0=サンゴ十五夜
TTITLE1=心神雷火
TTITLE2=散歩のススメ
TTITLE3=ハミングバード
TTITLE4=音色七色
TTITLE5=ワダツミの木
TTITLE6=千の夜と千の昼
TTITLE7=いつか風になる日
TTITLE8=三八月
TTITLE9=ウルガの丘
TTITLE10=名前のない鳥
TTITLE11=ひかる・かいがら
EXTD=
EXTT0=
EXTT1=
EXTT2=
EXTT3=
EXTT4=
EXTT5=
EXTT6=
EXTT7=
EXTT8=
EXTT9=
EXTT10=
EXTT11=
PLAYORDER=
